<svg xmlns="http://www.w3.org/2000/svg" width="18" height="18" viewBox="0 0 18 18">
    <g>
        <line x1="4.01708" y1="16.4552" x2="13.7553" y2="2.58294" stroke="black" stroke-width="1.5" stroke-linecap="round" stroke-linejoin="round"/>
        <path d="M9 14.5c5.032 0 7.5-4.487 7.5-5 0-.496-2.524-5-7.5-5s-7.5 4.485-7.5 5c0 .565 2.468 5 7.5 5zM9 16c-4.734 0-9-4.038-9-6.5C0 7.09 4.322 3 9 3c4.674 0 9 4.102 9 6.5 0 2.428-4.279 6.5-9 6.5z"/>
        <path d="M9.616 6.563a3 3 0 1 0 1.854 1.233 1.492 1.492 0 1 1-1.854-1.233z"/>
    </g>
</svg>
