<svg width="18" height="18" viewBox="0 0 18 18" xmlns="http://www.w3.org/2000/svg">
    <g>
        <path d="M11.4606 4.79963C12.3247 4.99963 13.0121 5.73552 13.2121 6.53956C13.2804 6.91552 13.6083 7.19943 14.0003 7.19943C14.4402 7.19943 14.8002 6.83954 14.8002 6.39953C14.8002 5.82357 14.3163 4.94764 13.6562 4.29165C13.0082 3.65168 12.2364 3.19979 11.6005 3.19979C11.1607 3.19979 10.8005 3.57178 10.8005 4.01184C10.8005 4.4036 11.0845 4.73166 11.4606 4.79963ZM0.465218 15.2869C-0.155073 15.9068 -0.155073 16.9149 0.465218 17.5347C1.08507 18.1551 2.09325 18.1551 2.70888 17.5347L7.30458 12.943C8.37642 13.6113 9.64055 13.9991 11.0005 13.9991C14.8683 13.9991 18 10.8672 18 6.99947C18 3.13186 14.8683 0 11.0005 0C7.13275 0 4.00097 3.13186 4.00097 6.99947C4.00097 8.35548 4.38921 9.62352 5.05718 10.6954L0.465218 15.2869ZM6.00082 6.99947C6.00082 4.23979 8.24052 1.99984 11.0005 1.99984C13.7604 1.99984 16.0002 4.23979 16.0002 6.99947C16.0002 9.75947 13.7604 11.9991 11.0005 11.9991C8.24052 11.9991 6.00082 9.75947 6.00082 6.99947Z"/>
    </g>
</svg>
